<svg xmlns="http://www.w3.org/2000/svg" viewBox="0 0 524.67 878.09" preserveAspectRatio="xMidYMid meet">
  <defs>
    <style>
      .cls-1, .cls-13, .cls-16, .cls-17, .cls-18, .cls-19, .cls-2, .cls-20, .cls-21 {
        fill: none;
      }

      .cls-1 {
        stroke: #5dc7d4;
      }

      .cls-1, .cls-2 {
        stroke-linecap: round;
      }

      .cls-1, .cls-13, .cls-17, .cls-19, .cls-2, .cls-21 {
        stroke-miterlimit: 10;
      }

      .cls-1, .cls-13, .cls-16, .cls-18, .cls-19, .cls-2, .cls-20, .cls-21 {
        stroke-width: 4px;
      }

      .cls-2 {
        stroke: #fcaf17;
      }

      .cls-3 {
        fill: #fff;
      }

      .cls-14, .cls-4, .cls-7, .cls-8, .cls-9 {
        fill: #231f20;
      }

      .cls-10, .cls-11, .cls-12, .cls-15, .cls-5, .cls-6 {
        fill: #6d6e71;
      }

      .cls-6 {
        font-size: 6.9px;
      }

      .cls-12, .cls-15, .cls-6 {
        font-family: SunST-ExtraBold, SunST;
      }

      .cls-12, .cls-14, .cls-15, .cls-6, .cls-8, .cls-9 {
        font-weight: 700;
      }

      .cls-7 {
        font-size: 8px;
        font-family: SunST-Regular, SunST;
      }

      .cls-12, .cls-8 {
        font-size: 11px;
      }

      .cls-14, .cls-8, .cls-9 {
        font-family: SunST-Bold, SunST;
      }

      .cls-9 {
        font-size: 14px;
      }

      .cls-10 {
        font-size: 9.01px;
      }

      .cls-10, .cls-11 {
        font-family: SunST-MediumItalic, SunST;
        font-style: italic;
      }

      .cls-11 {
        font-size: 9px;
      }

      .cls-13, .cls-18 {
        stroke: #42469c;
      }

      .cls-13, .cls-16, .cls-18, .cls-19, .cls-20, .cls-21 {
        stroke-dasharray: 6 3;
      }

      .cls-14, .cls-15 {
        font-size: 11.01px;
      }

      .cls-16, .cls-19, .cls-20 {
        stroke: #e76525;
      }

      .cls-16, .cls-18 {
        stroke-linejoin: round;
      }

      .cls-17 {
        stroke: #231f20;
        stroke-width: 0.35px;
      }

      .cls-20 {
        stroke-linejoin: bevel;
      }

      .cls-21 {
        stroke: #00a048;
      }
    </style>
  </defs>
  <title>ST3-final-2</title>
  <g id="Existing">
    <path class="cls-1" d="M349.32,444.21v-44.9l-43.12-33.93s-49.35-73.5-28.94-182.75c0,0,6.22-52.83,71-96,27.6-18.4,56.93-25,56.93-25" transform="translate(-104.33 -34.57)"/>
    <line class="cls-2" x1="384.23" y1="334.94" x2="413.41" y2="305.76"/>
    <polyline class="cls-2" points="285.14 152.95 274.31 165.03 274.69 342.7 250.11 360.1 249.68 404.66"/>
    <path class="cls-2" d="M266.18,737.79V716.38s0-6.61,5.61-6.61c4.6,0,6,1.87,6,1.87l12.65,12.79V752" transform="translate(-104.33 -34.57)"/>
    <polyline class="cls-2" points="361.52 364.56 361.52 406.81 264.06 406.81 263.77 442.97 285.47 442.97 285.47 515.2 252.65 515.2 252.65 598.58"/>
    <g>
      <rect class="cls-3" x="299.28" y="20.93" width="17.87" height="9.43" rx="4.17" ry="4.17"/>
      <path class="cls-4" d="M417.32,56A3.68,3.68,0,0,1,421,59.66v1.1a3.68,3.68,0,0,1-3.67,3.67h-9.53a3.68,3.68,0,0,1-3.67-3.67v-1.1A3.68,3.68,0,0,1,407.79,56h9.53m0-1h-9.53a4.67,4.67,0,0,0-4.67,4.67v1.1a4.67,4.67,0,0,0,4.67,4.67h9.53A4.67,4.67,0,0,0,422,60.76v-1.1A4.67,4.67,0,0,0,417.32,55Z" transform="translate(-104.33 -34.57)"/>
    </g>
    <g>
      <g>
        <circle class="cls-3" cx="308.57" cy="25.6" r="4.21"/>
        <path class="cls-5" d="M412.91,56.45a3.71,3.71,0,1,1-3.71,3.71,3.71,3.71,0,0,1,3.71-3.71m0-1a4.71,4.71,0,1,0,4.71,4.71,4.72,4.72,0,0,0-4.71-4.71Z" transform="translate(-104.33 -34.57)"/>
      </g>
      <text class="cls-6" transform="translate(306.92 27.95)">P</text>
    </g>
    <g>
      <g>
        <circle class="cls-3" cx="267.07" cy="39.1" r="4.21"/>
        <path class="cls-5" d="M371.41,70a3.71,3.71,0,1,1-3.71,3.71A3.71,3.71,0,0,1,371.41,70m0-1a4.71,4.71,0,1,0,4.71,4.71A4.72,4.72,0,0,0,371.41,69Z" transform="translate(-104.33 -34.57)"/>
      </g>
      <text class="cls-6" transform="translate(265.42 41.45)">P</text>
    </g>
    <g>
      <g>
        <circle class="cls-3" cx="173.67" cy="144.31" r="4.21"/>
        <path class="cls-5" d="M278,175.16a3.71,3.71,0,1,1-3.71,3.71,3.71,3.71,0,0,1,3.71-3.71m0-1a4.71,4.71,0,1,0,4.71,4.71,4.72,4.72,0,0,0-4.71-4.71Z" transform="translate(-104.33 -34.57)"/>
      </g>
      <text class="cls-6" transform="translate(172.01 146.66)">P</text>
    </g>
    <text class="cls-7" transform="translate(246.34 29.31)">Mukilteo</text>
    <text class="cls-8" transform="translate(195.74 126.26)">Edmonds</text>
    <text class="cls-8" transform="translate(207.74 171.26)">Lynnwood</text>
    <text class="cls-8" transform="translate(180.87 202.27)">Shoreline</text>
    <text class="cls-9" transform="translate(324.07 11.73)">EVERETT</text>
    <text class="cls-7" transform="translate(321 28.98)">Everett Station</text>
    <g>
      <circle class="cls-3" cx="274.05" cy="238.63" r="3.98"/>
      <path class="cls-4" d="M378.39,270a3.23,3.23,0,1,1-3.23,3.23,3.23,3.23,0,0,1,3.23-3.23m0-1.5a4.73,4.73,0,1,0,4.73,4.73,4.73,4.73,0,0,0-4.73-4.73Z" transform="translate(-104.33 -34.57)"/>
    </g>
    <g>
      <path class="cls-3" d="M393.63,199a4.17,4.17,0,0,1-2.59-.9l-7.46-5.94a4.17,4.17,0,0,1-.67-5.85l.69-.86a4.18,4.18,0,0,1,5.85-.67l7.46,5.94a4.17,4.17,0,0,1,.67,5.85l-.68.86A4.15,4.15,0,0,1,393.63,199Z" transform="translate(-104.33 -34.57)"/>
      <path class="cls-4" d="M386.87,184.41a3.65,3.65,0,0,1,2.28.79l7.46,5.94a3.68,3.68,0,0,1,.59,5.15l-.69.86a3.68,3.68,0,0,1-5.15.59l-7.46-5.94a3.68,3.68,0,0,1-.59-5.15l.69-.86a3.67,3.67,0,0,1,2.87-1.38m0-1h0a4.65,4.65,0,0,0-3.66,1.76l-.69.86a4.68,4.68,0,0,0,.75,6.56l7.46,5.94a4.68,4.68,0,0,0,6.56-.74l.69-.86a4.67,4.67,0,0,0-.74-6.56l-7.46-5.94a4.67,4.67,0,0,0-2.9-1Z" transform="translate(-104.33 -34.57)"/>
    </g>
    <g>
      <path class="cls-3" d="M393.63,199a4.17,4.17,0,0,1-2.59-.9l-7.46-5.94a4.17,4.17,0,0,1-.67-5.85l.69-.86a4.18,4.18,0,0,1,5.85-.67l7.46,5.94a4.17,4.17,0,0,1,.67,5.85l-.68.86A4.15,4.15,0,0,1,393.63,199Z" transform="translate(-104.33 -34.57)"/>
      <path class="cls-4" d="M386.87,184.41a3.65,3.65,0,0,1,2.28.79l7.46,5.94a3.68,3.68,0,0,1,.59,5.15l-.69.86a3.68,3.68,0,0,1-5.15.59l-7.46-5.94a3.68,3.68,0,0,1-.59-5.15l.69-.86a3.67,3.67,0,0,1,2.87-1.38m0-1h0a4.65,4.65,0,0,0-3.66,1.76l-.69.86a4.68,4.68,0,0,0,.75,6.56l7.46,5.94a4.68,4.68,0,0,0,6.56-.74l.69-.86a4.67,4.67,0,0,0-.74-6.56l-7.46-5.94a4.67,4.67,0,0,0-2.9-1Z" transform="translate(-104.33 -34.57)"/>
    </g>
    <g>
      <rect class="cls-3" x="267.41" y="208.43" width="17.89" height="9.44" rx="4.17" ry="4.17"/>
      <path class="cls-4" d="M385.46,243.5a3.68,3.68,0,0,1,3.67,3.67v1.11a3.68,3.68,0,0,1-3.67,3.67h-9.55a3.68,3.68,0,0,1-3.67-3.67v-1.11a3.68,3.68,0,0,1,3.67-3.67h9.55m0-1h-9.55a4.67,4.67,0,0,0-4.67,4.67v1.11a4.67,4.67,0,0,0,4.67,4.67h9.55a4.67,4.67,0,0,0,4.67-4.67v-1.11a4.67,4.67,0,0,0-4.67-4.67Z" transform="translate(-104.33 -34.57)"/>
    </g>
    <text class="cls-10" transform="translate(221.35 216.71)">N.E. 145th</text>
    <text class="cls-11" transform="translate(222.87 267.01)">Northgate</text>
    <text class="cls-7" transform="translate(231.34 241.4)">N.E. 130th</text>
    <text class="cls-11" transform="translate(320.07 388.59)">Mercer<tspan x="0" y="10">Island</tspan></text>
    <g>
      <circle class="cls-3" cx="285.76" cy="477.68" r="3.98"/>
      <path class="cls-4" d="M390.1,509a3.23,3.23,0,1,1-3.23,3.23A3.23,3.23,0,0,1,390.1,509m0-1.5a4.73,4.73,0,1,0,4.73,4.73,4.73,4.73,0,0,0-4.73-4.73Z" transform="translate(-104.33 -34.57)"/>
    </g>
    <g>
      <g>
        <circle class="cls-3" cx="271.92" cy="515.52" r="4.21"/>
        <path class="cls-5" d="M376.25,546.38a3.71,3.71,0,1,1-3.71,3.71,3.71,3.71,0,0,1,3.71-3.71m0-1a4.71,4.71,0,1,0,4.71,4.71,4.72,4.72,0,0,0-4.71-4.71Z" transform="translate(-104.33 -34.57)"/>
      </g>
      <text class="cls-6" transform="translate(270.26 517.88)">P</text>
    </g>
    <text class="cls-7" transform="translate(294 479.73)">S. Graham St.</text>
    <text class="cls-7" transform="translate(236.5 499.73)">S. Boeing <tspan x="0" y="9">Access Rd.</tspan></text>
    <g>
      <rect class="cls-3" x="181.12" y="714.61" width="9.43" height="17.87" rx="4.17" ry="4.17"/>
      <path class="cls-4" d="M290.72,749.68a3.68,3.68,0,0,1,3.67,3.67v9.53a3.68,3.68,0,0,1-3.67,3.67h-1.1a3.68,3.68,0,0,1-3.67-3.67v-9.53a3.68,3.68,0,0,1,3.67-3.67h1.1m0-1h-1.1a4.67,4.67,0,0,0-4.67,4.67v9.53a4.67,4.67,0,0,0,4.67,4.67h1.1a4.67,4.67,0,0,0,4.67-4.67v-9.53a4.67,4.67,0,0,0-4.67-4.67Z" transform="translate(-104.33 -34.57)"/>
    </g>
    <text class="cls-8" transform="translate(17.24 810.35)">Lakewood</text>
    <text class="cls-9" transform="translate(145.41 662.32)">TACOMA</text>
    <text class="cls-11" transform="translate(248.5 323.85)">UW</text>
    <text class="cls-8" transform="translate(264.74 553.93)">Tukwila</text>
    <text class="cls-8" transform="translate(264.74 553.93)">Tukwila</text>
    <text class="cls-11" transform="translate(217.74 579.85)">Sea-Tac<tspan x="2.14" y="10">Airport</tspan></text>
    <g>
      <g>
        <circle class="cls-3" cx="185.83" cy="724.31" r="4.21"/>
        <path class="cls-5" d="M290.17,755.17a3.71,3.71,0,1,1-3.71,3.71,3.71,3.71,0,0,1,3.71-3.71m0-1a4.71,4.71,0,1,0,4.71,4.71,4.72,4.72,0,0,0-4.71-4.71Z" transform="translate(-104.33 -34.57)"/>
      </g>
      <text class="cls-12" transform="translate(183.09 727.62)">+</text>
    </g>
    <circle class="cls-4" cx="274.74" cy="174.84" r="3.55"/>
    <circle class="cls-4" cx="274.74" cy="191.84" r="3.55"/>
    <circle class="cls-4" cx="274.74" cy="262.84" r="3.55"/>
    <circle class="cls-4" cx="274.74" cy="282.84" r="3.55"/>
    <circle class="cls-4" cx="274.74" cy="302.84" r="3.55"/>
    <circle class="cls-4" cx="276.63" cy="406.81" r="3.55"/>
    <circle class="cls-4" cx="332.63" cy="406.81" r="3.55"/>
    <circle class="cls-4" cx="361.55" cy="373.89" r="3.55"/>
    <circle class="cls-4" cx="361.55" cy="395.89" r="3.55"/>
    <circle class="cls-4" cx="386.55" cy="332.64" r="3.55"/>
    <circle class="cls-4" cx="396.22" cy="322.89" r="3.55"/>
    <circle class="cls-4" cx="405.22" cy="314.39" r="3.55"/>
    <circle class="cls-4" cx="517.05" cy="341.37" r="3.55" transform="translate(-205.75 269.69) rotate(-30)"/>
    <rect class="cls-4" x="270.44" y="318.36" width="7.79" height="3.48"/>
    <rect class="cls-4" x="247.27" y="365.36" width="7.79" height="3.48"/>
    <rect class="cls-4" x="374.6" y="474.92" width="7.79" height="3.48" transform="translate(750.83 63.6) rotate(90)"/>
    <rect class="cls-4" x="385.6" y="480.92" width="7.79" height="3.48" transform="translate(674.67 930.77) rotate(180)"/>
    <rect class="cls-4" x="385.6" y="490.92" width="7.79" height="3.48" transform="translate(674.67 950.77) rotate(180)"/>
    <rect class="cls-4" x="385.6" y="524.92" width="7.79" height="3.48" transform="translate(674.67 1018.77) rotate(180)"/>
    <rect class="cls-4" x="385.6" y="537.92" width="7.79" height="3.48" transform="translate(674.67 1044.77) rotate(180)"/>
    <rect class="cls-4" x="353.1" y="612.92" width="7.79" height="3.48" transform="translate(609.67 1194.77) rotate(180)"/>
    <rect class="cls-4" x="353.1" y="629.92" width="7.79" height="3.48" transform="translate(609.67 1228.77) rotate(180)"/>
    <text class="cls-11" transform="translate(261.17 598.85)">Angle Lake</text>
    <text class="cls-11" transform="translate(259.07 365.09)">Capitol<tspan x="0" y="10">Hill</tspan></text>
  </g>
  <g id="_405_BRT" data-name="405 BRT">
    <path class="cls-13" d="M394.67,189.71l27.17-30.17s56.09,55.19,55.33,55.19v291l-45.62,65.93H297.38" transform="translate(-104.33 -34.57)"/>
    <text class="cls-10" transform="translate(378.77 212.37)">UW Bothell</text>
    <text class="cls-14" transform="translate(381.11 181.41)">Bothell</text>
    <text class="cls-7" transform="translate(360.33 157.06)">Canyon Park</text>
    <text class="cls-7" transform="translate(380.83 246.98)">Totem Lake/Kingsgate</text>
    <text class="cls-7" transform="translate(380.83 232.4)">Brickyard</text>
    <g>
      <g>
        <polygon class="cls-3" points="347.67 159.75 352.77 154.03 357.88 159.75 352.77 165.46 347.67 159.75"/>
        <path class="cls-5" d="M457.11,189.35l4.44,5-4.44,5-4.44-5,4.44-5m0-1.5-.75.83-4.44,5-.6.67.6.67,4.44,5,.75.83.75-.83,4.44-5,.6-.67-.6-.67-4.44-5-.75-.83Z" transform="translate(-104.33 -34.57)"/>
      </g>
      <text class="cls-12" transform="translate(350.03 162.99)">+</text>
    </g>
    <g>
      <g>
        <polygon class="cls-3" points="367.27 196.24 372.38 190.53 377.5 196.24 372.38 201.96 367.27 196.24"/>
        <path class="cls-5" d="M476.72,225.85l4.44,5-4.44,5-4.44-5,4.44-5m0-1.5-.75.83-4.44,5-.6.67.6.67,4.44,5,.75.83.75-.83,4.44-5,.6-.67-.6-.67-4.44-5-.75-.83Z" transform="translate(-104.33 -34.57)"/>
      </g>
      <text class="cls-15" transform="translate(369.64 199.49)">+</text>
    </g>
    <g>
      <g>
        <polygon class="cls-3" points="367.79 230.37 372.9 224.66 378 230.37 372.9 236.08 367.79 230.37"/>
        <path class="cls-5" d="M477.23,260l4.44,5-4.44,5-4.44-5,4.44-5m0-1.5-.75.83-4.44,5-.6.67.6.67,4.44,5,.75.83.75-.83,4.44-5,.6-.67-.6-.67-4.44-5-.75-.83Z" transform="translate(-104.33 -34.57)"/>
      </g>
      <text class="cls-12" transform="translate(370.16 233.61)">+</text>
    </g>
    <g>
      <g>
        <polygon class="cls-3" points="367.79 243.87 372.9 238.16 378 243.87 372.9 249.58 367.79 243.87"/>
        <path class="cls-5" d="M477.23,273.48l4.44,5-4.44,5-4.44-5,4.44-5m0-1.5-.75.83-4.44,5-.6.67.6.67,4.44,5,.75.83.75-.83,4.44-5,.6-.67-.6-.67-4.44-5-.75-.83Z" transform="translate(-104.33 -34.57)"/>
      </g>
      <text class="cls-6" transform="translate(371.33 246.29)">P</text>
    </g>
    <text class="cls-8" transform="translate(390.28 262.84)">Kirkland</text>
    <text class="cls-7" transform="translate(381.83 277.4)">N.E. 85th</text>
    <g>
      <polygon class="cls-3" points="367.12 275.2 372.56 269.12 378 275.2 372.56 281.29 367.12 275.2"/>
      <path class="cls-4" d="M476.9,304.81l4.44,5-4.44,5-4.44-5,4.44-5m0-2.25-1.12,1.25-4.44,5-.89,1,.89,1,4.44,5L476.9,317l1.12-1.25,4.44-5,.89-1-.89-1-4.44-5-1.12-1.25Z" transform="translate(-104.33 -34.57)"/>
    </g>
    <text class="cls-7" transform="translate(370 488.73)">N.E. 44th</text>
    <g>
      <g>
        <polygon class="cls-3" points="357.95 485.95 363.06 480.24 368.17 485.95 363.06 491.66 357.95 485.95"/>
        <path class="cls-5" d="M467.4,515.56l4.44,5-4.44,5-4.44-5,4.44-5m0-1.5-.75.83-4.44,5-.6.67.6.67,4.44,5,.75.83.75-.83,4.44-5,.6-.67-.6-.67-4.44-5-.75-.83Z" transform="translate(-104.33 -34.57)"/>
      </g>
      <text class="cls-6" transform="translate(361.5 488.37)">P</text>
    </g>
    <text class="cls-8" transform="translate(353.45 525.02)">Renton</text>
    <text class="cls-7" transform="translate(335.5 540.73)">South Renton</text>
    <g>
      <g>
        <polygon class="cls-3" points="322.12 536.78 327.23 531.07 332.33 536.78 327.23 542.49 322.12 536.78"/>
        <path class="cls-5" d="M431.56,566.39l4.44,5-4.44,5-4.44-5,4.44-5m0-1.5-.75.83-4.44,5-.6.67.6.67,4.44,5,.75.83.75-.83,4.44-5,.6-.67-.6-.67-4.44-5-.75-.83Z" transform="translate(-104.33 -34.57)"/>
      </g>
      <text class="cls-6" transform="translate(325.66 539.2)">P</text>
    </g>
    <g>
      <rect class="cls-3" x="246.21" y="532.33" width="17.87" height="9.43" rx="4.17" ry="4.17"/>
      <path class="cls-4" d="M364.24,567.4a3.68,3.68,0,0,1,3.67,3.67v1.1a3.68,3.68,0,0,1-3.67,3.67h-9.53a3.68,3.68,0,0,1-3.67-3.67v-1.1a3.68,3.68,0,0,1,3.67-3.67h9.53m0-1h-9.53a4.67,4.67,0,0,0-4.67,4.67v1.1a4.67,4.67,0,0,0,4.67,4.67h9.53a4.67,4.67,0,0,0,4.67-4.67v-1.1a4.67,4.67,0,0,0-4.67-4.67Z" transform="translate(-104.33 -34.57)"/>
    </g>
    <text class="cls-8" transform="translate(145.41 536.43)">Burien</text>
    <text class="cls-7" transform="translate(175.87 552.64)">Burien<tspan x="-24.81" y="9">Transit Center</tspan></text>
    <text class="cls-11" transform="translate(217.24 552.35)">Tukwila<tspan x="-7.56" y="10">Int’l Blvd.</tspan></text>
    <g>
      <g>
        <polygon class="cls-3" points="192.13 537.37 197.23 531.66 202.34 537.37 197.23 543.08 192.13 537.37"/>
        <path class="cls-5" d="M301.57,567l4.44,5-4.44,5-4.44-5,4.44-5m0-1.5-.75.83-4.44,5-.6.67.6.67,4.44,5,.75.83.75-.83,4.44-5,.6-.67-.6-.67-4.44-5-.75-.83Z" transform="translate(-104.33 -34.57)"/>
      </g>
      <text class="cls-12" transform="translate(194.49 540.61)">+</text>
    </g>
    <g>
      <path class="cls-3" d="M393.63,199a4.17,4.17,0,0,1-2.59-.9l-7.46-5.94a4.17,4.17,0,0,1-.67-5.85l.69-.86a4.18,4.18,0,0,1,5.85-.67l7.46,5.94a4.17,4.17,0,0,1,.67,5.85l-.68.86A4.15,4.15,0,0,1,393.63,199Z" transform="translate(-104.33 -34.57)"/>
      <path class="cls-4" d="M386.87,184.41a3.65,3.65,0,0,1,2.28.79l7.46,5.94a3.68,3.68,0,0,1,.59,5.15l-.69.86a3.68,3.68,0,0,1-5.15.59l-7.46-5.94a3.68,3.68,0,0,1-.59-5.15l.69-.86a3.67,3.67,0,0,1,2.87-1.38m0-1h0a4.65,4.65,0,0,0-3.66,1.76l-.69.86a4.68,4.68,0,0,0,.75,6.56l7.46,5.94a4.68,4.68,0,0,0,6.56-.74l.69-.86a4.67,4.67,0,0,0-.74-6.56l-7.46-5.94a4.67,4.67,0,0,0-2.9-1Z" transform="translate(-104.33 -34.57)"/>
    </g>
    <text class="cls-8" transform="translate(264.74 553.93)">Tukwila</text>
  </g>
  <g id="Everett">
    <g>
      <rect class="cls-3" x="299.28" y="20.93" width="17.87" height="9.43" rx="4.17" ry="4.17"/>
      <path class="cls-4" d="M417.32,56A3.68,3.68,0,0,1,421,59.66v1.1a3.68,3.68,0,0,1-3.67,3.67h-9.53a3.68,3.68,0,0,1-3.67-3.67v-1.1A3.68,3.68,0,0,1,407.79,56h9.53m0-1h-9.53a4.67,4.67,0,0,0-4.67,4.67v1.1a4.67,4.67,0,0,0,4.67,4.67h9.53A4.67,4.67,0,0,0,422,60.76v-1.1A4.67,4.67,0,0,0,417.32,55Z" transform="translate(-104.33 -34.57)"/>
    </g>
    <g>
      <g>
        <circle class="cls-3" cx="308.57" cy="25.6" r="4.21"/>
        <path class="cls-5" d="M412.91,56.45a3.71,3.71,0,1,1-3.71,3.71,3.71,3.71,0,0,1,3.71-3.71m0-1a4.71,4.71,0,1,0,4.71,4.71,4.72,4.72,0,0,0-4.71-4.71Z" transform="translate(-104.33 -34.57)"/>
      </g>
      <text class="cls-6" transform="translate(306.92 27.95)">P</text>
    </g>
    <path class="cls-16" d="M418.51,65.54V89.19H391.68s-2.68,24.53,26.07,35.27v32.2L391,186.14" transform="translate(-104.33 -34.57)"/>
    <g>
      <g>
        <circle class="cls-3" cx="314.65" cy="91.14" r="4.21"/>
        <path class="cls-5" d="M419,122a3.71,3.71,0,1,1-3.71,3.71A3.71,3.71,0,0,1,419,122m0-1a4.71,4.71,0,1,0,4.71,4.71A4.72,4.72,0,0,0,419,121Z" transform="translate(-104.33 -34.57)"/>
      </g>
      <text class="cls-6" transform="translate(313 93.5)">P</text>
    </g>
    <g>
      <circle class="cls-3" cx="293.6" cy="144.33" r="3.98"/>
      <path class="cls-4" d="M397.94,175.67a3.23,3.23,0,1,1-3.23,3.23,3.23,3.23,0,0,1,3.23-3.23m0-1.5a4.73,4.73,0,1,0,4.73,4.73,4.73,4.73,0,0,0-4.73-4.73Z" transform="translate(-104.33 -34.57)"/>
    </g>
    <g>
      <circle class="cls-3" cx="314.3" cy="116.73" r="3.98"/>
      <path class="cls-4" d="M418.64,148.07a3.23,3.23,0,1,1-3.23,3.23,3.23,3.23,0,0,1,3.23-3.23m0-1.5a4.73,4.73,0,1,0,4.73,4.73,4.73,4.73,0,0,0-4.73-4.73Z" transform="translate(-104.33 -34.57)"/>
    </g>
    <g>
      <circle class="cls-3" cx="299.35" cy="81.08" r="3.98"/>
      <path class="cls-4" d="M403.69,112.42a3.23,3.23,0,1,1-3.23,3.23,3.23,3.23,0,0,1,3.23-3.23m0-1.5a4.73,4.73,0,1,0,4.73,4.73,4.73,4.73,0,0,0-4.73-4.73Z" transform="translate(-104.33 -34.57)"/>
    </g>
    <g>
      <circle class="cls-3" cx="299.35" cy="55.78" r="3.98"/>
      <path class="cls-4" d="M403.69,87.12a3.23,3.23,0,1,1-3.23,3.23,3.23,3.23,0,0,1,3.23-3.23m0-1.5a4.73,4.73,0,1,0,4.73,4.73,4.73,4.73,0,0,0-4.73-4.73Z" transform="translate(-104.33 -34.57)"/>
    </g>
    <g>
      <circle class="cls-3" cx="287.85" cy="55.93" r="3.98"/>
      <path class="cls-4" d="M392.19,87.27A3.23,3.23,0,1,1,389,90.49a3.23,3.23,0,0,1,3.23-3.23m0-1.5a4.73,4.73,0,1,0,4.73,4.73,4.73,4.73,0,0,0-4.73-4.73Z" transform="translate(-104.33 -34.57)"/>
    </g>
    <text class="cls-8" transform="translate(195.74 126.26)">Edmonds</text>
    <text class="cls-7" transform="translate(321.92 67.06)">Hwy. 526/<tspan x="0" y="10">Evergreen</tspan></text>
    <text class="cls-7" transform="translate(245.18 60.56)">SW Everett<tspan x="-19.22" y="10">Industrial Center</tspan><tspan x="-4.53" y="20">(Paine Field)</tspan></text>
    <text class="cls-7" transform="translate(269.49 94.64)">Hwy. 99/<tspan x="-10.34" y="10">Airport Road</tspan><tspan x="-10.4" y="20">(provisional)</tspan></text>
    <text class="cls-7" transform="translate(321.92 95.06)">Mariner</text>
    <text class="cls-7" transform="translate(321.17 119.06)">Ash Way</text>
    <polyline class="cls-17" points="299.33 60.31 299.33 65.14 320.17 65.14"/>
    <text class="cls-7" transform="translate(208.95 143.06)">West Alderwood Mall</text>
    <text class="cls-9" transform="translate(324.07 11.73)">EVERETT</text>
    <text class="cls-7" transform="translate(321 28.98)">Everett Station</text>
  </g>
  <g id="_522_BRT" data-name="522 BRT">
    <polyline class="cls-18" points="285.82 213.04 303.73 213.04 303.73 195.79 366.86 195.79"/>
    <text class="cls-8" transform="translate(180.87 202.27)">Shoreline</text>
    <g>
      <rect class="cls-3" x="267.41" y="208.43" width="17.89" height="9.44" rx="4.17" ry="4.17"/>
      <path class="cls-4" d="M385.46,243.5a3.68,3.68,0,0,1,3.67,3.67v1.11a3.68,3.68,0,0,1-3.67,3.67h-9.55a3.68,3.68,0,0,1-3.67-3.67v-1.11a3.68,3.68,0,0,1,3.67-3.67h9.55m0-1h-9.55a4.67,4.67,0,0,0-4.67,4.67v1.11a4.67,4.67,0,0,0,4.67,4.67h9.55a4.67,4.67,0,0,0,4.67-4.67v-1.11a4.67,4.67,0,0,0-4.67-4.67Z" transform="translate(-104.33 -34.57)"/>
    </g>
    <text class="cls-10" transform="translate(221.35 216.71)">N.E. 145th</text>
    <text class="cls-10" transform="translate(378.77 212.37)">UW Bothell</text>
    <text class="cls-14" transform="translate(381.11 181.41)">Bothell</text>
    <g>
      <g>
        <polygon class="cls-3" points="367.27 196.24 372.38 190.53 377.5 196.24 372.38 201.96 367.27 196.24"/>
        <path class="cls-5" d="M476.72,225.85l4.44,5-4.44,5-4.44-5,4.44-5m0-1.5-.75.83-4.44,5-.6.67.6.67,4.44,5,.75.83.75-.83,4.44-5,.6-.67-.6-.67-4.44-5-.75-.83Z" transform="translate(-104.33 -34.57)"/>
      </g>
      <text class="cls-15" transform="translate(369.64 199.49)">+</text>
    </g>
  </g>
  <g id="Kirkland">
    <polyline class="cls-19" points="360.08 358.08 381.79 337.1 381.79 314.53 354.47 298.57"/>
    <g>
      <rect class="cls-3" x="358.82" y="353.32" width="17.87" height="9.43" rx="4.17" ry="4.17"/>
      <path class="cls-4" d="M476.86,388.39a3.68,3.68,0,0,1,3.67,3.67v1.1a3.68,3.68,0,0,1-3.67,3.67h-9.53a3.68,3.68,0,0,1-3.67-3.67v-1.1a3.68,3.68,0,0,1,3.67-3.67h9.53m0-1h-9.53a4.67,4.67,0,0,0-4.67,4.67v1.1a4.67,4.67,0,0,0,4.67,4.67h9.53a4.67,4.67,0,0,0,4.67-4.67v-1.1a4.67,4.67,0,0,0-4.67-4.67Z" transform="translate(-104.33 -34.57)"/>
    </g>
    <g>
      <g>
        <circle class="cls-3" cx="356.07" cy="299.09" r="4.21"/>
        <path class="cls-5" d="M460.4,329.95a3.71,3.71,0,1,1-3.71,3.71,3.71,3.71,0,0,1,3.71-3.71m0-1a4.71,4.71,0,1,0,4.71,4.71,4.72,4.72,0,0,0-4.71-4.71Z" transform="translate(-104.33 -34.57)"/>
      </g>
      <text class="cls-6" transform="translate(354.41 301.45)">P</text>
    </g>
    <text class="cls-9" transform="translate(427.74 361.56)">BELLEVUE</text>
    <text class="cls-10" transform="translate(382 360.61)">Bellevue</text>
    <text class="cls-7" transform="translate(329.45 299.9)">South<tspan x="-7.59" y="10">Kirkland</tspan></text>
  </g>
  <g id="Issaquah">
    <g>
      <rect class="cls-3" x="358.82" y="353.32" width="17.87" height="9.43" rx="4.17" ry="4.17"/>
      <path class="cls-4" d="M476.86,388.39a3.68,3.68,0,0,1,3.67,3.67v1.1a3.68,3.68,0,0,1-3.67,3.67h-9.53a3.68,3.68,0,0,1-3.67-3.67v-1.1a3.68,3.68,0,0,1,3.67-3.67h9.53m0-1h-9.53a4.67,4.67,0,0,0-4.67,4.67v1.1a4.67,4.67,0,0,0,4.67,4.67h9.53a4.67,4.67,0,0,0,4.67-4.67v-1.1a4.67,4.67,0,0,0-4.67-4.67Z" transform="translate(-104.33 -34.57)"/>
    </g>
    <text class="cls-9" transform="translate(427.74 361.56)">BELLEVUE</text>
    <text class="cls-10" transform="translate(382 360.61)">Bellevue</text>
    <polyline class="cls-19" points="455.24 425.5 381.36 403.51 381.36 372.03 367.2 362.75"/>
    <g>
      <circle class="cls-3" cx="381.29" cy="396.18" r="3.98"/>
      <path class="cls-4" d="M485.62,427.52a3.23,3.23,0,1,1-3.23,3.23,3.23,3.23,0,0,1,3.23-3.23m0-1.5a4.73,4.73,0,1,0,4.73,4.73,4.73,4.73,0,0,0-4.73-4.73Z" transform="translate(-104.33 -34.57)"/>
    </g>
    <g>
      <circle class="cls-3" cx="403.14" cy="409.98" r="3.98"/>
      <path class="cls-4" d="M507.47,441.32a3.23,3.23,0,1,1-3.23,3.23,3.23,3.23,0,0,1,3.23-3.23m0-1.5a4.73,4.73,0,1,0,4.73,4.73,4.73,4.73,0,0,0-4.73-4.73Z" transform="translate(-104.33 -34.57)"/>
    </g>
    <g>
      <circle class="cls-3" cx="431.89" cy="418.03" r="3.98"/>
      <path class="cls-4" d="M536.22,449.37a3.23,3.23,0,1,1-3.23,3.23,3.23,3.23,0,0,1,3.23-3.23m0-1.5a4.73,4.73,0,1,0,4.73,4.73,4.73,4.73,0,0,0-4.73-4.73Z" transform="translate(-104.33 -34.57)"/>
    </g>
    <g>
      <g>
        <circle class="cls-3" cx="453.57" cy="425.09" r="4.21"/>
        <path class="cls-5" d="M557.9,455.95a3.71,3.71,0,1,1-3.71,3.71,3.71,3.71,0,0,1,3.71-3.71m0-1a4.71,4.71,0,1,0,4.71,4.71,4.72,4.72,0,0,0-4.71-4.71Z" transform="translate(-104.33 -34.57)"/>
      </g>
      <text class="cls-6" transform="translate(451.91 427.45)">P</text>
    </g>
    <text class="cls-8" transform="translate(461.74 426.1)">Issaquah</text>
    <text class="cls-7" transform="translate(449 438.56)">Central<tspan x="0" y="10">Issaquah</tspan></text>
    <text class="cls-7" transform="translate(387.5 394.4)">Richards Road</text>
    <text class="cls-7" transform="translate(410.5 407.6)">Bellevue College</text>
    <text class="cls-7" transform="translate(407.36 432.23)">Lakemont<tspan x="-8.77" y="10">(provisional)</tspan></text>
  </g>
  <g id="Redmond">
    <polyline class="cls-19" points="415.42 304.75 437.85 288.8 459.27 284.91 447.62 272.69"/>
    <g>
      <circle class="cls-3" cx="450" cy="275.43" r="3.98"/>
      <path class="cls-4" d="M554.34,306.77a3.23,3.23,0,1,1-3.23,3.23,3.23,3.23,0,0,1,3.23-3.23m0-1.5a4.73,4.73,0,1,0,4.73,4.73,4.73,4.73,0,0,0-4.73-4.73Z" transform="translate(-104.33 -34.57)"/>
    </g>
    <g>
      <g>
        <circle class="cls-3" cx="460.65" cy="285.59" r="4.21"/>
        <path class="cls-5" d="M565,316.45a3.71,3.71,0,1,1-3.71,3.71,3.71,3.71,0,0,1,3.71-3.71m0-1a4.71,4.71,0,1,0,4.71,4.71,4.72,4.72,0,0,0-4.71-4.71Z" transform="translate(-104.33 -34.57)"/>
      </g>
      <text class="cls-6" transform="translate(459 287.95)">P</text>
    </g>
    <text class="cls-7" transform="translate(467.83 288.9)">Southeast<tspan x="0" y="10">Redmond</tspan></text>
    <text class="cls-7" transform="translate(453.83 258.4)">Downtown<tspan x="0" y="10">Redmond</tspan></text>
  </g>
  <g id="Ballard">
    <polyline class="cls-19" points="204.35 288.65 204.35 338.1 263.77 389.47 263.77 404.48"/>
    <g>
      <circle class="cls-3" cx="263.41" cy="397.33" r="3.98"/>
      <path class="cls-4" d="M367.75,428.67a3.23,3.23,0,1,1-3.23,3.23,3.23,3.23,0,0,1,3.23-3.23m0-1.5a4.73,4.73,0,1,0,4.73,4.73,4.73,4.73,0,0,0-4.73-4.73Z" transform="translate(-104.33 -34.57)"/>
    </g>
    <g>
      <circle class="cls-3" cx="236.96" cy="366.28" r="3.98"/>
      <path class="cls-4" d="M341.3,397.62a3.23,3.23,0,1,1-3.23,3.23,3.23,3.23,0,0,1,3.23-3.23m0-1.5a4.73,4.73,0,1,0,4.73,4.73,4.73,4.73,0,0,0-4.73-4.73Z" transform="translate(-104.33 -34.57)"/>
    </g>
    <g>
      <circle class="cls-3" cx="225.46" cy="357.08" r="3.98"/>
      <path class="cls-4" d="M329.8,388.42a3.23,3.23,0,1,1-3.23,3.23,3.23,3.23,0,0,1,3.23-3.23m0-1.5a4.73,4.73,0,1,0,4.73,4.73,4.73,4.73,0,0,0-4.73-4.73Z" transform="translate(-104.33 -34.57)"/>
    </g>
    <g>
      <circle class="cls-3" cx="216.26" cy="349.03" r="3.98"/>
      <path class="cls-4" d="M320.6,380.37a3.23,3.23,0,1,1-3.23,3.23,3.23,3.23,0,0,1,3.23-3.23m0-1.5a4.73,4.73,0,1,0,4.73,4.73,4.73,4.73,0,0,0-4.73-4.73Z" transform="translate(-104.33 -34.57)"/>
    </g>
    <g>
      <circle class="cls-3" cx="205.91" cy="339.83" r="3.98"/>
      <path class="cls-4" d="M310.25,371.17a3.23,3.23,0,1,1-3.23,3.23,3.23,3.23,0,0,1,3.23-3.23m0-1.5a4.73,4.73,0,1,0,4.73,4.73,4.73,4.73,0,0,0-4.73-4.73Z" transform="translate(-104.33 -34.57)"/>
    </g>
    <g>
      <circle class="cls-3" cx="204.76" cy="317.98" r="3.98"/>
      <path class="cls-4" d="M309.1,349.32a3.23,3.23,0,1,1-3.23,3.23,3.23,3.23,0,0,1,3.23-3.23m0-1.5a4.73,4.73,0,1,0,4.73,4.73,4.73,4.73,0,0,0-4.73-4.73Z" transform="translate(-104.33 -34.57)"/>
    </g>
    <g>
      <circle class="cls-3" cx="204.76" cy="293.83" r="3.98"/>
      <path class="cls-4" d="M309.1,325.17a3.23,3.23,0,1,1-3.23,3.23,3.23,3.23,0,0,1,3.23-3.23m0-1.5a4.73,4.73,0,1,0,4.73,4.73,4.73,4.73,0,0,0-4.73-4.73Z" transform="translate(-104.33 -34.57)"/>
    </g>
    <g>
      <rect class="cls-3" x="246.21" y="381.68" width="17.87" height="9.43" rx="4.17" ry="4.17"/>
      <path class="cls-4" d="M364.24,416.75a3.68,3.68,0,0,1,3.67,3.67v1.1a3.68,3.68,0,0,1-3.67,3.67h-9.53a3.68,3.68,0,0,1-3.67-3.67v-1.1a3.68,3.68,0,0,1,3.67-3.67h9.53m0-1h-9.53a4.67,4.67,0,0,0-4.67,4.67v1.1a4.67,4.67,0,0,0,4.67,4.67h9.53a4.67,4.67,0,0,0,4.67-4.67v-1.1a4.67,4.67,0,0,0-4.67-4.67Z" transform="translate(-104.33 -34.57)"/>
    </g>
    <text class="cls-9" transform="translate(146.86 392.06)">SEATTLE</text>
    <text class="cls-7" transform="translate(211 296.06)">Ballard</text>
    <text class="cls-7" transform="translate(211 320.06)">Interbay</text>
    <text class="cls-7" transform="translate(156.95 343.73)">Smith Cove</text>
    <text class="cls-7" transform="translate(158.68 355.73)">Seattle Center</text>
    <text class="cls-7" transform="translate(161.78 366.73)">South Lake Union</text>
    <text class="cls-7" transform="translate(210.16 377.73)">Denny</text>
    <text class="cls-7" transform="translate(208.6 389.73)">Westlake</text>
    <text class="cls-7" transform="translate(270 397.23)">Midtown</text>
  </g>
  <g id="West_Seattle" data-name="West Seattle">
    <polyline class="cls-19" points="249.68 404.8 249.68 441.41 195.63 441.41"/>
    <g>
      <circle class="cls-3" cx="196.71" cy="441.03" r="3.98"/>
      <path class="cls-4" d="M301,472.37a3.23,3.23,0,1,1-3.23,3.23,3.23,3.23,0,0,1,3.23-3.23m0-1.5a4.73,4.73,0,1,0,4.73,4.73,4.73,4.73,0,0,0-4.73-4.73Z" transform="translate(-104.33 -34.57)"/>
    </g>
    <g>
      <circle class="cls-3" cx="212.81" cy="441.03" r="3.98"/>
      <path class="cls-4" d="M317.15,472.37a3.23,3.23,0,1,1-3.23,3.23,3.23,3.23,0,0,1,3.23-3.23m0-1.5a4.73,4.73,0,1,0,4.73,4.73,4.73,4.73,0,0,0-4.73-4.73Z" transform="translate(-104.33 -34.57)"/>
    </g>
    <g>
      <circle class="cls-3" cx="226.61" cy="441.03" r="3.98"/>
      <path class="cls-4" d="M330.95,472.37a3.23,3.23,0,1,1-3.23,3.23,3.23,3.23,0,0,1,3.23-3.23m0-1.5a4.73,4.73,0,1,0,4.73,4.73,4.73,4.73,0,0,0-4.73-4.73Z" transform="translate(-104.33 -34.57)"/>
    </g>
    <g>
      <circle class="cls-3" cx="249.61" cy="423.78" r="3.98"/>
      <path class="cls-4" d="M353.95,455.12a3.23,3.23,0,1,1-3.23,3.23,3.23,3.23,0,0,1,3.23-3.23m0-1.5a4.73,4.73,0,1,0,4.73,4.73,4.73,4.73,0,0,0-4.73-4.73Z" transform="translate(-104.33 -34.57)"/>
    </g>
    <g>
      <rect class="cls-3" x="246.21" y="402.38" width="17.87" height="9.43" rx="4.17" ry="4.17"/>
      <path class="cls-4" d="M364.24,437.45a3.68,3.68,0,0,1,3.67,3.67v1.1a3.68,3.68,0,0,1-3.67,3.67h-9.53a3.68,3.68,0,0,1-3.67-3.67v-1.1a3.68,3.68,0,0,1,3.67-3.67h9.53m0-1h-9.53a4.67,4.67,0,0,0-4.67,4.67v1.1a4.67,4.67,0,0,0,4.67,4.67h9.53a4.67,4.67,0,0,0,4.67-4.67v-1.1a4.67,4.67,0,0,0-4.67-4.67Z" transform="translate(-104.33 -34.57)"/>
    </g>
    <g>
      <rect class="cls-3" x="246.21" y="436.88" width="17.87" height="9.43" rx="4.17" ry="4.17"/>
      <path class="cls-4" d="M364.24,472a3.68,3.68,0,0,1,3.67,3.67v1.1a3.68,3.68,0,0,1-3.67,3.67h-9.53a3.68,3.68,0,0,1-3.67-3.67v-1.1a3.68,3.68,0,0,1,3.67-3.67h9.53m0-1h-9.53a4.67,4.67,0,0,0-4.67,4.67v1.1a4.67,4.67,0,0,0,4.67,4.67h9.53a4.67,4.67,0,0,0,4.67-4.67v-1.1a4.67,4.67,0,0,0-4.67-4.67Z" transform="translate(-104.33 -34.57)"/>
    </g>
    <text class="cls-11" transform="translate(142.91 430.35)">West Seattle</text>
    <text class="cls-7" transform="translate(130.11 409.73)">International District/Chinatown</text>
    <text class="cls-7" transform="translate(211.3 427.73)">Stadium</text>
    <text class="cls-7" transform="translate(138.45 442.73)">Alaska Junction</text>
    <text class="cls-7" transform="translate(256.83 455.06)">SODO</text>
    <text class="cls-7" transform="translate(200.19 459.4)">Avalon</text>
    <text class="cls-7" transform="translate(208.68 471.73)">Delridge</text>
    <line class="cls-17" x1="212" y1="445.31" x2="212" y2="451.97"/>
    <line class="cls-17" x1="226.61" y1="444.25" x2="226.61" y2="464.31"/>
  </g>
  <g id="South_Federal_Way" data-name="South Federal Way">
    <polyline class="cls-20" points="252.65 653.56 252.65 718.08 191.39 718.08"/>
    <g>
      <g>
        <circle class="cls-3" cx="252.81" cy="653.17" r="4.21"/>
        <path class="cls-5" d="M357.14,684a3.71,3.71,0,1,1-3.71,3.71,3.71,3.71,0,0,1,3.71-3.71m0-1a4.71,4.71,0,1,0,4.71,4.71,4.72,4.72,0,0,0-4.71-4.71Z" transform="translate(-104.33 -34.57)"/>
      </g>
      <text class="cls-6" transform="translate(251.15 655.53)">P</text>
    </g>
    <g>
      <g>
        <circle class="cls-3" cx="252.81" cy="681.17" r="4.21"/>
        <path class="cls-5" d="M357.14,712a3.71,3.71,0,1,1-3.71,3.71,3.71,3.71,0,0,1,3.71-3.71m0-1a4.71,4.71,0,1,0,4.71,4.71,4.72,4.72,0,0,0-4.71-4.71Z" transform="translate(-104.33 -34.57)"/>
      </g>
      <text class="cls-6" transform="translate(251.15 683.53)">P</text>
    </g>
    <g>
      <g>
        <circle class="cls-3" cx="242.81" cy="717.92" r="4.21"/>
        <path class="cls-5" d="M347.14,748.78a3.71,3.71,0,1,1-3.71,3.71,3.71,3.71,0,0,1,3.71-3.71m0-1a4.71,4.71,0,1,0,4.71,4.71,4.72,4.72,0,0,0-4.71-4.71Z" transform="translate(-104.33 -34.57)"/>
      </g>
      <text class="cls-6" transform="translate(241.15 720.28)">P</text>
    </g>
    <g>
      <g>
        <circle class="cls-3" cx="212.81" cy="717.92" r="4.21"/>
        <path class="cls-5" d="M317.14,748.78a3.71,3.71,0,1,1-3.71,3.71,3.71,3.71,0,0,1,3.71-3.71m0-1a4.71,4.71,0,1,0,4.71,4.71,4.72,4.72,0,0,0-4.71-4.71Z" transform="translate(-104.33 -34.57)"/>
      </g>
      <text class="cls-6" transform="translate(211.15 720.28)">P</text>
    </g>
    <text class="cls-7" transform="translate(261 655.73)">Federal Way<tspan x="0" y="10">Transit Center</tspan></text>
    <g>
      <g>
        <circle class="cls-3" cx="252.81" cy="653.17" r="4.21"/>
        <path class="cls-5" d="M357.14,684a3.71,3.71,0,1,1-3.71,3.71,3.71,3.71,0,0,1,3.71-3.71m0-1a4.71,4.71,0,1,0,4.71,4.71,4.72,4.72,0,0,0-4.71-4.71Z" transform="translate(-104.33 -34.57)"/>
      </g>
      <text class="cls-6" transform="translate(251.15 655.53)">P</text>
    </g>
    <text class="cls-7" transform="translate(261 655.73)">Federal Way<tspan x="0" y="10">Transit Center</tspan></text>
    <text class="cls-7" transform="translate(262.5 683.23)">South<tspan x="0" y="10">Federal Way</tspan></text>
    <text class="cls-7" transform="translate(239 748.23)">Fife</text>
    <line class="cls-17" x1="243.07" y1="722.12" x2="243.07" y2="739.81"/>
    <text class="cls-7" transform="translate(206.47 748.23)">East<tspan x="-5.98" y="10">Tacoma</tspan></text>
    <line class="cls-17" x1="213.07" y1="722.12" x2="213.07" y2="739.81"/>
    <text class="cls-8" transform="translate(220.33 687.07)">Fife</text>
  </g>
  <g id="Federal_Way" data-name="Federal Way">
    <line class="cls-20" x1="252.65" y1="600.21" x2="252.65" y2="648.56"/>
    <g>
      <g>
        <circle class="cls-3" cx="252.81" cy="629.17" r="4.21"/>
        <path class="cls-5" d="M357.14,660a3.71,3.71,0,1,1-3.71,3.71,3.71,3.71,0,0,1,3.71-3.71m0-1a4.71,4.71,0,1,0,4.71,4.71,4.72,4.72,0,0,0-4.71-4.71Z" transform="translate(-104.33 -34.57)"/>
      </g>
      <text class="cls-6" transform="translate(251.15 631.53)">P</text>
    </g>
    <text class="cls-8" transform="translate(181.38 634.21)">Federal Way</text>
    <text class="cls-7" transform="translate(262 631.73)">S. 272nd</text>
    <text class="cls-7" transform="translate(262 612.73)">Highline College</text>
    <text class="cls-8" transform="translate(158.04 601.21)">Des Moines</text>
    <g>
      <g>
        <circle class="cls-3" cx="252.81" cy="653.17" r="4.21"/>
        <path class="cls-5" d="M357.14,684a3.71,3.71,0,1,1-3.71,3.71,3.71,3.71,0,0,1,3.71-3.71m0-1a4.71,4.71,0,1,0,4.71,4.71,4.72,4.72,0,0,0-4.71-4.71Z" transform="translate(-104.33 -34.57)"/>
      </g>
      <text class="cls-6" transform="translate(251.15 655.53)">P</text>
    </g>
    <text class="cls-7" transform="translate(261 655.73)">Federal Way<tspan x="0" y="10">Transit Center</tspan></text>
    <circle class="cls-4" cx="252.63" cy="609.14" r="3.55"/>
  </g>
  <g id="Tacoma">
    <line class="cls-19" x1="91.46" y1="703.42" x2="161.42" y2="703.42"/>
    <g>
      <circle class="cls-3" cx="93.42" cy="703.94" r="3.98"/>
      <path class="cls-4" d="M197.76,735.28a3.23,3.23,0,1,1-3.23,3.23,3.23,3.23,0,0,1,3.23-3.23m0-1.5a4.73,4.73,0,1,0,4.73,4.73,4.73,4.73,0,0,0-4.73-4.73Z" transform="translate(-104.33 -34.57)"/>
    </g>
    <g>
      <circle class="cls-3" cx="106.07" cy="703.94" r="3.98"/>
      <path class="cls-4" d="M210.41,735.28a3.23,3.23,0,1,1-3.23,3.23,3.23,3.23,0,0,1,3.23-3.23m0-1.5a4.73,4.73,0,1,0,4.73,4.73,4.73,4.73,0,0,0-4.73-4.73Z" transform="translate(-104.33 -34.57)"/>
    </g>
    <g>
      <circle class="cls-3" cx="119.87" cy="703.94" r="3.98"/>
      <path class="cls-4" d="M224.21,735.28a3.23,3.23,0,1,1-3.23,3.23,3.23,3.23,0,0,1,3.23-3.23m0-1.5a4.73,4.73,0,1,0,4.73,4.73,4.73,4.73,0,0,0-4.73-4.73Z" transform="translate(-104.33 -34.57)"/>
    </g>
    <g>
      <circle class="cls-3" cx="131.37" cy="703.94" r="3.98"/>
      <path class="cls-4" d="M235.71,735.28a3.23,3.23,0,1,1-3.23,3.23,3.23,3.23,0,0,1,3.23-3.23m0-1.5a4.73,4.73,0,1,0,4.73,4.73,4.73,4.73,0,0,0-4.73-4.73Z" transform="translate(-104.33 -34.57)"/>
    </g>
    <g>
      <circle class="cls-3" cx="145.17" cy="703.94" r="3.98"/>
      <path class="cls-4" d="M249.51,735.28a3.23,3.23,0,1,1-3.23,3.23,3.23,3.23,0,0,1,3.23-3.23m0-1.5a4.73,4.73,0,1,0,4.73,4.73,4.73,4.73,0,0,0-4.73-4.73Z" transform="translate(-104.33 -34.57)"/>
    </g>
    <g>
      <circle class="cls-3" cx="157.82" cy="703.94" r="3.98"/>
      <path class="cls-4" d="M262.16,735.28a3.23,3.23,0,1,1-3.23,3.23,3.23,3.23,0,0,1,3.23-3.23m0-1.5a4.73,4.73,0,1,0,4.73,4.73,4.73,4.73,0,0,0-4.73-4.73Z" transform="translate(-104.33 -34.57)"/>
    </g>
    <text class="cls-7" transform="translate(60.99 705.23)">Tacoma<tspan x="-12.74" y="10">Community</tspan><tspan x="1.14" y="20">College</tspan></text>
    <text class="cls-7" transform="translate(93.25 693.23)">Pearl</text>
    <line class="cls-17" x1="105.92" y1="695.06" x2="105.92" y2="700.15"/>
    <text class="cls-7" transform="translate(100.37 682.23)">Stevens</text>
    <text class="cls-7" transform="translate(151.83 719.48)">Hilltop</text>
    <text class="cls-7" transform="translate(120.91 719.48)">Sprague</text>
    <line class="cls-17" x1="119.92" y1="684.31" x2="119.92" y2="700.49"/>
    <text class="cls-7" transform="translate(118.95 672.48)">Union</text>
    <line class="cls-17" x1="130.92" y1="674.56" x2="130.92" y2="700.58"/>
    <line class="cls-17" x1="145.17" y1="708.31" x2="145.17" y2="713.14"/>
    <line class="cls-17" x1="158.17" y1="708.31" x2="158.17" y2="713.14"/>
  </g>
  <g id="Sounder_South" data-name="Sounder South">
    <line class="cls-1" x1="244.98" y1="440.45" x2="244.98" y2="409.64"/>
    <polyline class="cls-1" points="127.35 767.48 167.89 730.25 332 730.25 332 569.83 244.93 466.33 244.93 440.16"/>
    <line class="cls-1" x1="83.94" y1="808.16" x2="127.35" y2="767.48"/>
    <g>
      <g>
        <circle class="cls-3" cx="244.5" cy="414.97" r="4.21"/>
        <path class="cls-5" d="M348.83,445.83a3.71,3.71,0,1,1-3.71,3.71,3.71,3.71,0,0,1,3.71-3.71m0-1a4.71,4.71,0,1,0,4.71,4.71,4.72,4.72,0,0,0-4.71-4.71Z" transform="translate(-104.33 -34.57)"/>
      </g>
      <text class="cls-12" transform="translate(241.76 418.28)">+</text>
    </g>
    <text class="cls-8" transform="translate(348.24 598.43)">Kent</text>
    <text class="cls-8" transform="translate(348.24 649.43)">Auburn</text>
    <text class="cls-8" transform="translate(346.74 722.43)">Sumner</text>
    <g>
      <g>
        <circle class="cls-3" cx="317.17" cy="552.31" r="4.21"/>
        <path class="cls-5" d="M421.5,583.16a3.71,3.71,0,1,1-3.71,3.71,3.71,3.71,0,0,1,3.71-3.71m0-1a4.71,4.71,0,1,0,4.71,4.71,4.72,4.72,0,0,0-4.71-4.71Z" transform="translate(-104.33 -34.57)"/>
      </g>
      <text class="cls-12" transform="translate(314.43 555.61)">+</text>
    </g>
    <g>
      <g>
        <circle class="cls-3" cx="332.33" cy="593.97" r="4.21"/>
        <path class="cls-5" d="M436.67,624.83a3.71,3.71,0,1,1-3.71,3.71,3.71,3.71,0,0,1,3.71-3.71m0-1a4.71,4.71,0,1,0,4.71,4.71,4.72,4.72,0,0,0-4.71-4.71Z" transform="translate(-104.33 -34.57)"/>
      </g>
      <text class="cls-12" transform="translate(329.59 597.28)">+</text>
    </g>
    <g>
      <g>
        <circle class="cls-3" cx="332.33" cy="646.97" r="4.21"/>
        <path class="cls-5" d="M436.67,677.83a3.71,3.71,0,1,1-3.71,3.71,3.71,3.71,0,0,1,3.71-3.71m0-1a4.71,4.71,0,1,0,4.71,4.71,4.72,4.72,0,0,0-4.71-4.71Z" transform="translate(-104.33 -34.57)"/>
      </g>
      <text class="cls-12" transform="translate(329.59 650.28)">+</text>
    </g>
    <g>
      <g>
        <circle class="cls-3" cx="332.33" cy="720.97" r="4.21"/>
        <path class="cls-5" d="M436.67,751.83a3.71,3.71,0,1,1-3.71,3.71,3.71,3.71,0,0,1,3.71-3.71m0-1a4.71,4.71,0,1,0,4.71,4.71,4.72,4.72,0,0,0-4.71-4.71Z" transform="translate(-104.33 -34.57)"/>
      </g>
      <text class="cls-12" transform="translate(329.59 724.28)">+</text>
    </g>
    <g>
      <g>
        <circle class="cls-3" cx="293" cy="730.31" r="4.21"/>
        <path class="cls-5" d="M397.33,761.16a3.71,3.71,0,1,1-3.71,3.71,3.71,3.71,0,0,1,3.71-3.71m0-1a4.71,4.71,0,1,0,4.71,4.71,4.72,4.72,0,0,0-4.71-4.71Z" transform="translate(-104.33 -34.57)"/>
      </g>
      <text class="cls-12" transform="translate(290.26 733.61)">+</text>
    </g>
    <text class="cls-8" transform="translate(275.32 748)">Puyallup</text>
    <g>
      <g>
        <circle class="cls-3" cx="130.66" cy="763.81" r="4.21"/>
        <path class="cls-5" d="M235,794.67a3.71,3.71,0,1,1-3.71,3.71,3.71,3.71,0,0,1,3.71-3.71m0-1a4.71,4.71,0,1,0,4.71,4.71,4.72,4.72,0,0,0-4.71-4.71Z" transform="translate(-104.33 -34.57)"/>
      </g>
      <text class="cls-12" transform="translate(127.92 767.12)">+</text>
    </g>
    <g>
      <g>
        <circle class="cls-3" cx="82.41" cy="808.81" r="4.21"/>
        <path class="cls-5" d="M186.74,839.67a3.71,3.71,0,1,1-3.71,3.71,3.71,3.71,0,0,1,3.71-3.71m0-1a4.71,4.71,0,1,0,4.71,4.71,4.72,4.72,0,0,0-4.71-4.71Z" transform="translate(-104.33 -34.57)"/>
      </g>
      <text class="cls-12" transform="translate(79.67 812.12)">+</text>
    </g>
    <text class="cls-7" transform="translate(144.5 772.73)">South<tspan x="0" y="10">Tacoma</tspan></text>
    <g>
      <rect class="cls-3" x="181.12" y="714.61" width="9.43" height="17.87" rx="4.17" ry="4.17"/>
      <path class="cls-4" d="M290.72,749.68a3.68,3.68,0,0,1,3.67,3.67v9.53a3.68,3.68,0,0,1-3.67,3.67h-1.1a3.68,3.68,0,0,1-3.67-3.67v-9.53a3.68,3.68,0,0,1,3.67-3.67h1.1m0-1h-1.1a4.67,4.67,0,0,0-4.67,4.67v9.53a4.67,4.67,0,0,0,4.67,4.67h1.1a4.67,4.67,0,0,0,4.67-4.67v-9.53a4.67,4.67,0,0,0-4.67-4.67Z" transform="translate(-104.33 -34.57)"/>
    </g>
    <text class="cls-8" transform="translate(264.74 553.93)">Tukwila</text>
    <g>
      <g>
        <circle class="cls-3" cx="185.83" cy="724.31" r="4.21"/>
        <path class="cls-5" d="M290.17,755.17a3.71,3.71,0,1,1-3.71,3.71,3.71,3.71,0,0,1,3.71-3.71m0-1a4.71,4.71,0,1,0,4.71,4.71,4.72,4.72,0,0,0-4.71-4.71Z" transform="translate(-104.33 -34.57)"/>
      </g>
      <text class="cls-12" transform="translate(183.09 727.62)">+</text>
    </g>
    <text class="cls-8" transform="translate(17.24 810.35)">Lakewood</text>
    <text class="cls-9" transform="translate(146.86 392.06)">SEATTLE</text>
    <text class="cls-7" transform="translate(130.11 409.73)">International District/Chinatown</text>
  </g>
  <g id="DuPont">
    <line class="cls-21" x1="39.66" y1="849.42" x2="78.16" y2="813.34"/>
    <g>
      <g>
        <circle class="cls-3" cx="58.96" cy="831.34" r="4.21"/>
        <path class="cls-5" d="M163.3,862.2a3.71,3.71,0,1,1-3.71,3.71,3.71,3.71,0,0,1,3.71-3.71m0-1a4.71,4.71,0,1,0,4.71,4.71,4.72,4.72,0,0,0-4.71-4.71Z" transform="translate(-104.33 -34.57)"/>
      </g>
      <text class="cls-6" transform="translate(57.31 833.7)">P</text>
    </g>
    <g>
      <g>
        <circle class="cls-3" cx="41.29" cy="847.97" r="4.21"/>
        <path class="cls-5" d="M145.62,878.83a3.71,3.71,0,1,1-3.71,3.71,3.71,3.71,0,0,1,3.71-3.71m0-1a4.71,4.71,0,1,0,4.71,4.71,4.72,4.72,0,0,0-4.71-4.71Z" transform="translate(-104.33 -34.57)"/>
      </g>
      <text class="cls-6" transform="translate(39.63 850.33)">P</text>
    </g>
    <text class="cls-8" transform="translate(16.65 871.35)">DuPont</text>
    <text class="cls-7" transform="translate(69 835.73)">Tillicum</text>
    <text class="cls-7" transform="translate(51 853.73)">DuPont</text>
  </g>
</svg>
